<svg id="svg" version="1.1" xmlns="http://www.w3.org/2000/svg" xmlns:xlink="http://www.w3.org/1999/xlink" width="400" height="340.15748031496065" viewBox="0, 0, 400,340.15748031496065"><g id="svgg"><path id="path0" d="M20.285 0.293 C 20.185 0.455,19.561 0.544,18.900 0.492 C 18.233 0.439,17.783 0.536,17.890 0.709 C 17.996 0.881,17.605 1.021,17.021 1.021 C 16.400 1.021,16.047 1.163,16.170 1.362 C 16.367 1.681,15.688 1.853,14.723 1.728 C 14.489 1.697,14.298 1.849,14.298 2.064 C 14.298 2.280,14.070 2.369,13.792 2.262 C 13.492 2.147,13.136 2.350,12.915 2.762 C 12.696 3.173,12.338 3.378,12.041 3.264 C 11.719 3.141,11.626 3.213,11.783 3.466 C 11.945 3.729,11.839 3.788,11.464 3.645 C 11.155 3.526,10.938 3.538,10.983 3.672 C 11.027 3.806,10.984 3.915,10.886 3.915 C 10.788 3.915,10.337 4.260,9.885 4.681 C 9.433 5.102,8.930 5.447,8.767 5.447 C 8.604 5.447,8.554 5.583,8.657 5.749 C 8.913 6.163,7.944 6.919,7.504 6.648 C 7.309 6.527,7.149 6.676,7.149 6.979 C 7.149 7.308,6.991 7.432,6.756 7.287 C 6.516 7.139,6.455 7.193,6.599 7.426 C 6.729 7.636,6.523 8.003,6.141 8.241 C 5.759 8.479,5.447 8.876,5.447 9.123 C 5.447 9.376,5.275 9.466,5.054 9.329 C 4.821 9.185,4.753 9.235,4.887 9.452 C 5.011 9.653,4.872 10.058,4.577 10.353 C 4.283 10.647,4.137 11.043,4.254 11.231 C 4.370 11.420,4.314 11.574,4.128 11.574 C 3.942 11.574,3.693 11.881,3.574 12.255 C 3.456 12.630,3.130 12.936,2.851 12.936 C 2.571 12.936,2.437 13.089,2.553 13.277 C 2.669 13.464,2.563 13.619,2.318 13.622 C 1.963 13.626,1.966 13.687,2.334 13.920 C 2.661 14.127,2.685 14.282,2.414 14.449 C 2.203 14.579,2.120 14.828,2.227 15.002 C 2.335 15.177,2.245 15.319,2.026 15.319 C 1.808 15.319,1.713 15.536,1.814 15.802 C 1.916 16.067,1.769 16.373,1.487 16.481 C 1.139 16.614,1.048 16.911,1.204 17.403 C 1.346 17.849,1.265 18.232,0.995 18.399 C 0.745 18.554,0.527 19.421,0.491 20.413 C 0.455 21.372,0.330 22.252,0.212 22.369 C -0.093 22.675,-0.049 315.504,0.257 315.693 C 0.397 315.779,0.492 316.362,0.469 316.989 C 0.446 317.615,0.580 318.319,0.766 318.553 C 1.002 318.849,0.969 318.979,0.657 318.979 C 0.377 318.979,0.445 319.150,0.838 319.438 C 1.183 319.690,1.365 320.060,1.241 320.260 C 1.118 320.459,1.209 320.700,1.445 320.795 C 1.785 320.932,1.785 320.973,1.447 320.994 C 1.213 321.009,1.021 321.174,1.021 321.362 C 1.021 321.549,1.136 321.684,1.277 321.662 C 2.026 321.543,2.219 321.815,2.167 322.917 C 2.131 323.688,2.285 324.199,2.587 324.315 C 2.849 324.416,3.066 324.750,3.069 325.058 C 3.074 325.543,3.118 325.550,3.404 325.106 C 3.673 324.690,3.735 324.733,3.739 325.334 C 3.746 326.234,4.667 327.977,5.702 329.049 C 6.123 329.485,6.468 330.002,6.468 330.197 C 6.468 330.393,6.698 330.553,6.979 330.553 C 7.260 330.553,7.489 330.705,7.489 330.891 C 7.489 331.412,9.580 333.287,9.924 333.074 C 10.092 332.971,10.208 333.012,10.181 333.166 C 10.062 333.852,10.251 334.009,10.723 333.617 C 11.142 333.270,11.234 333.293,11.234 333.746 C 11.234 334.049,11.387 334.317,11.574 334.340 C 11.762 334.364,12.080 334.402,12.283 334.426 C 12.485 334.449,12.847 334.736,13.086 335.064 C 13.326 335.391,13.850 335.660,14.250 335.660 C 14.651 335.660,15.285 335.966,15.660 336.340 C 16.034 336.715,16.417 337.021,16.511 337.021 C 16.604 337.021,16.920 337.021,17.212 337.021 C 17.503 337.021,17.648 337.174,17.532 337.362 C 17.416 337.549,17.475 337.702,17.662 337.702 C 17.849 337.702,18.097 337.549,18.213 337.361 C 18.351 337.138,18.638 337.134,19.040 337.349 C 19.378 337.530,19.776 337.569,19.925 337.435 C 20.073 337.301,20.095 337.366,19.973 337.578 C 19.603 338.227,16.668 338.218,168.613 338.043 C 256.839 337.941,316.414 337.997,316.598 338.181 C 316.783 338.366,317.095 338.335,317.374 338.103 C 317.631 337.890,318.135 337.659,318.495 337.590 C 318.855 337.521,319.410 337.351,319.728 337.212 C 320.047 337.074,320.492 337.075,320.717 337.214 C 320.975 337.373,321.038 337.323,320.886 337.079 C 320.722 336.812,320.970 336.728,321.677 336.810 C 322.244 336.876,322.625 336.797,322.525 336.635 C 322.425 336.473,322.675 336.340,323.080 336.340 C 323.590 336.340,323.758 336.186,323.625 335.838 C 323.477 335.453,323.661 335.362,324.410 335.450 C 325.091 335.529,325.338 335.433,325.223 335.133 C 325.122 334.868,325.459 334.615,326.104 334.473 C 326.743 334.333,327.159 334.023,327.176 333.675 C 327.193 333.321,327.268 333.267,327.374 333.532 C 327.469 333.766,327.696 333.957,327.878 333.957 C 328.061 333.957,328.133 333.832,328.039 333.679 C 327.944 333.527,328.318 333.135,328.870 332.809 C 329.421 332.483,329.872 332.063,329.872 331.876 C 329.872 331.688,330.011 331.620,330.181 331.725 C 330.351 331.830,330.410 331.609,330.312 331.235 C 330.188 330.761,330.301 330.553,330.684 330.553 C 330.986 330.553,331.234 330.400,331.234 330.213 C 331.234 330.026,331.464 329.872,331.745 329.872 C 332.026 329.872,332.258 329.604,332.261 329.277 C 332.265 328.767,332.314 328.755,332.596 329.191 C 332.866 329.609,332.927 329.570,332.931 328.978 C 332.937 328.148,333.705 327.372,334.148 327.748 C 334.312 327.886,334.240 327.732,333.990 327.404 C 333.569 326.855,333.703 326.654,334.408 326.777 C 334.563 326.803,334.594 326.672,334.479 326.486 C 334.363 326.299,334.568 325.889,334.934 325.576 C 335.300 325.263,335.520 324.799,335.423 324.546 C 335.326 324.292,335.416 324.085,335.623 324.085 C 335.830 324.085,336.000 323.855,336.000 323.574 C 336.000 323.294,336.191 323.061,336.426 323.059 C 336.709 323.055,336.681 322.943,336.340 322.723 C 336.000 322.503,335.972 322.392,336.255 322.388 C 336.489 322.385,336.681 322.144,336.681 321.852 C 336.681 321.560,336.801 321.396,336.948 321.487 C 337.204 321.645,337.259 321.397,337.389 319.496 C 337.425 318.970,337.592 318.737,337.830 318.880 C 338.040 319.006,337.983 318.821,337.702 318.468 C 337.421 318.115,337.368 317.933,337.585 318.062 C 337.868 318.232,337.925 317.901,337.788 316.880 C 337.624 315.659,337.676 315.491,338.159 315.677 C 338.680 315.877,338.720 305.368,338.723 169.350 C 338.724 62.258,338.623 22.809,338.347 22.809 C 338.140 22.809,338.056 22.584,338.161 22.309 C 338.267 22.034,338.213 21.723,338.043 21.617 C 337.872 21.511,337.819 21.198,337.925 20.921 C 338.032 20.644,337.941 20.203,337.724 19.941 C 337.425 19.581,337.425 19.406,337.722 19.222 C 337.999 19.050,338.007 18.912,337.747 18.751 C 337.545 18.626,337.322 18.224,337.252 17.858 C 337.182 17.491,336.949 16.760,336.733 16.233 C 336.517 15.706,336.340 15.055,336.340 14.786 C 336.340 14.518,336.102 14.298,335.810 14.298 C 335.518 14.298,335.360 14.167,335.458 14.008 C 335.557 13.848,335.418 13.427,335.149 13.071 C 334.880 12.716,334.655 12.148,334.649 11.810 C 334.643 11.435,334.486 11.288,334.248 11.435 C 333.974 11.605,333.919 11.384,334.065 10.689 C 334.178 10.146,334.188 9.892,334.087 10.125 C 333.853 10.662,332.936 9.831,332.936 9.082 C 332.936 8.808,332.698 8.492,332.408 8.381 C 332.055 8.245,331.957 8.318,332.113 8.600 C 332.241 8.832,331.864 8.512,331.275 7.889 C 330.686 7.267,330.291 6.617,330.396 6.446 C 330.502 6.275,330.351 6.227,330.060 6.338 C 329.770 6.450,329.532 6.364,329.532 6.148 C 329.532 5.614,327.845 4.085,327.255 4.085 C 326.789 4.085,326.379 3.813,325.103 2.660 C 324.654 2.254,324.420 2.204,324.303 2.489 C 324.213 2.712,324.127 2.608,324.112 2.258 C 324.093 1.802,323.899 1.671,323.426 1.795 C 323.033 1.898,322.690 1.765,322.575 1.466 C 322.469 1.190,322.191 1.033,321.957 1.116 C 321.723 1.200,321.072 1.021,320.511 0.719 C 319.363 0.102,20.665 -0.322,20.285 0.293 M73.532 47.392 C 73.532 47.539,74.528 47.660,75.745 47.660 C 77.285 47.660,77.959 47.530,77.963 47.234 C 77.967 46.908,78.034 46.913,78.250 47.253 C 78.416 47.515,78.938 47.639,79.521 47.555 C 80.065 47.476,80.762 47.540,81.069 47.698 C 81.375 47.855,82.099 48.019,82.677 48.063 C 83.254 48.107,83.806 48.351,83.904 48.604 C 84.001 48.857,84.230 48.972,84.413 48.859 C 84.596 48.746,85.172 48.868,85.692 49.131 C 86.213 49.394,86.851 49.533,87.111 49.441 C 87.413 49.334,87.493 49.421,87.332 49.681 C 87.181 49.926,87.264 50.064,87.540 50.028 C 88.392 49.918,89.572 50.469,89.406 50.900 C 89.302 51.172,89.459 51.271,89.836 51.172 C 90.163 51.086,90.650 51.286,90.917 51.616 C 91.343 52.141,91.340 52.180,90.894 51.932 C 90.552 51.743,90.584 51.862,90.991 52.292 C 91.519 52.851,91.642 52.868,91.922 52.426 C 92.197 51.990,92.246 52.003,92.250 52.511 C 92.253 52.838,92.469 53.106,92.730 53.106 C 92.990 53.106,93.292 53.338,93.401 53.620 C 93.509 53.903,93.784 54.094,94.012 54.046 C 94.240 53.997,94.711 54.545,95.060 55.264 C 95.463 56.097,95.863 56.505,96.162 56.391 C 96.420 56.292,96.814 56.431,97.038 56.701 C 97.262 56.971,97.348 57.191,97.230 57.191 C 97.112 57.191,97.478 57.675,98.043 58.266 C 98.608 58.858,99.011 59.401,98.938 59.473 C 98.866 59.546,99.262 60.061,99.820 60.618 C 100.409 61.208,100.752 61.842,100.640 62.135 C 100.534 62.412,100.595 62.638,100.777 62.638 C 100.958 62.638,101.106 62.877,101.106 63.169 C 101.106 63.484,101.267 63.601,101.499 63.457 C 101.748 63.303,101.800 63.364,101.640 63.622 C 101.502 63.846,101.593 64.276,101.843 64.578 C 102.093 64.879,102.263 65.178,102.221 65.242 C 101.999 65.577,102.607 67.385,102.990 67.532 C 103.252 67.632,103.360 67.994,103.253 68.407 C 103.151 68.793,103.262 69.343,103.498 69.627 C 103.734 69.911,103.838 70.233,103.730 70.341 C 103.621 70.449,103.665 70.886,103.827 71.311 C 104.015 71.807,103.983 72.221,103.737 72.467 C 103.452 72.752,103.459 72.851,103.762 72.851 C 104.207 72.851,104.365 77.649,103.934 78.080 C 103.479 78.535,103.461 79.717,103.914 79.445 C 104.230 79.255,104.251 79.315,103.994 79.679 C 103.803 79.949,103.655 80.657,103.665 81.251 C 103.675 81.855,103.540 82.244,103.358 82.132 C 103.175 82.018,103.126 82.173,103.247 82.487 C 103.364 82.794,103.272 83.240,103.041 83.480 C 102.811 83.719,102.631 84.145,102.642 84.426 C 102.653 84.706,102.397 85.385,102.072 85.933 C 101.748 86.482,101.567 87.069,101.672 87.238 C 101.776 87.407,101.424 88.016,100.888 88.591 C 100.353 89.166,100.092 89.537,100.309 89.414 C 100.607 89.245,100.607 89.398,100.309 90.042 C 100.092 90.511,99.744 90.830,99.536 90.752 C 99.328 90.674,99.157 90.866,99.157 91.178 C 99.157 92.337,99.055 92.631,98.723 92.426 C 98.536 92.310,98.383 92.463,98.383 92.766 C 98.383 93.069,98.241 93.229,98.067 93.122 C 97.893 93.014,97.653 93.235,97.533 93.612 C 97.414 93.989,97.135 94.300,96.913 94.303 C 96.675 94.306,96.719 94.443,97.021 94.638 C 97.454 94.918,97.438 94.969,96.916 94.974 C 96.577 94.976,96.379 95.107,96.476 95.263 C 96.573 95.419,96.122 95.800,95.475 96.109 C 94.827 96.417,94.298 96.826,94.298 97.016 C 94.298 97.206,94.052 97.362,93.751 97.362 C 93.416 97.362,93.276 97.551,93.391 97.850 C 93.519 98.182,93.259 98.408,92.576 98.557 C 92.025 98.678,91.574 98.919,91.574 99.091 C 91.574 99.263,91.345 99.404,91.064 99.404 C 90.783 99.404,90.553 99.557,90.553 99.745 C 90.553 99.932,90.314 100.085,90.022 100.085 C 89.707 100.085,89.591 100.245,89.735 100.479 C 89.902 100.749,89.748 100.813,89.245 100.681 C 88.723 100.545,88.511 100.644,88.511 101.025 C 88.511 101.319,88.421 101.471,88.311 101.361 C 88.052 101.101,86.128 101.773,86.128 102.123 C 86.128 102.271,85.591 102.493,84.936 102.616 C 84.281 102.739,83.745 102.960,83.745 103.107 C 83.745 103.255,83.400 103.345,82.979 103.309 C 82.557 103.272,81.992 103.412,81.722 103.621 C 81.331 103.923,81.289 103.896,81.517 103.489 C 81.749 103.074,81.716 103.058,81.344 103.404 C 81.091 103.638,80.465 103.830,79.952 103.830 C 79.439 103.830,78.924 103.983,78.808 104.171 C 78.668 104.398,78.376 104.394,77.937 104.159 C 77.574 103.965,77.277 103.927,77.277 104.076 C 77.277 104.224,76.319 104.288,75.149 104.218 C 73.979 104.148,72.123 104.050,71.024 104.001 C 69.926 103.953,68.914 103.729,68.775 103.505 C 68.637 103.280,68.310 103.127,68.049 103.163 C 67.073 103.300,66.349 103.138,66.542 102.826 C 66.652 102.649,66.431 102.563,66.052 102.637 C 65.616 102.720,65.362 102.588,65.362 102.278 C 65.362 102.008,65.213 101.787,65.032 101.787 C 64.851 101.787,64.795 102.055,64.908 102.383 C 65.091 102.915,65.063 102.923,64.642 102.451 C 63.628 101.317,62.944 100.948,63.163 101.654 C 63.273 102.008,63.118 101.877,62.819 101.362 C 62.521 100.847,62.195 100.426,62.097 100.426 C 61.998 100.426,62.029 100.617,62.166 100.851 C 62.303 101.085,62.120 101.029,61.761 100.725 C 61.401 100.422,60.911 100.219,60.672 100.274 C 60.434 100.329,60.395 100.297,60.587 100.201 C 61.129 99.933,60.998 99.404,60.390 99.404 C 59.825 99.404,57.804 97.884,58.047 97.641 C 58.122 97.566,57.861 97.480,57.467 97.450 C 57.072 97.421,56.581 97.213,56.375 96.989 C 56.093 96.682,56.126 96.648,56.511 96.851 C 56.862 97.037,56.915 97.010,56.681 96.764 C 56.494 96.567,56.064 96.353,55.727 96.288 C 55.389 96.223,55.102 96.017,55.090 95.830 C 55.077 95.643,54.701 95.055,54.254 94.524 C 53.808 93.994,53.544 93.395,53.667 93.195 C 53.792 92.993,53.734 92.929,53.537 93.051 C 53.119 93.309,51.893 91.608,52.030 90.959 C 52.085 90.697,51.874 90.557,51.516 90.619 C 51.182 90.676,50.904 90.570,50.897 90.383 C 50.875 89.726,49.957 87.830,49.661 87.830 C 49.496 87.830,49.380 87.715,49.402 87.574 C 49.502 86.940,49.337 86.443,49.078 86.603 C 48.796 86.778,48.740 86.563,48.645 84.936 C 48.618 84.468,48.423 84.083,48.213 84.080 C 48.002 84.077,48.060 83.926,48.340 83.745 C 48.691 83.518,48.716 83.413,48.419 83.409 C 48.146 83.406,48.043 83.094,48.140 82.561 C 48.236 82.031,48.143 81.747,47.891 81.795 C 47.643 81.843,47.527 81.514,47.587 80.936 C 47.660 80.238,47.530 79.990,47.077 79.961 C 46.494 79.923,46.494 79.914,47.078 79.763 C 47.544 79.642,47.624 79.430,47.418 78.866 C 47.194 78.251,47.135 75.959,47.285 73.702 C 47.304 73.421,47.319 73.000,47.319 72.766 C 47.317 71.464,47.577 70.044,47.854 69.845 C 48.338 69.496,48.391 68.766,47.932 68.766 C 47.630 68.766,47.623 68.666,47.905 68.384 C 48.115 68.174,48.197 67.766,48.086 67.477 C 47.953 67.132,48.021 67.037,48.283 67.198 C 48.544 67.360,48.681 67.167,48.681 66.637 C 48.681 65.597,49.979 62.899,50.365 63.138 C 50.527 63.238,50.580 63.013,50.482 62.639 C 50.351 62.138,50.472 61.956,50.939 61.952 C 51.346 61.949,51.432 61.856,51.178 61.695 C 50.721 61.404,51.320 59.976,51.915 59.937 C 52.102 59.925,52.255 59.775,52.255 59.603 C 52.255 59.432,52.600 58.992,53.021 58.627 C 53.443 58.262,53.787 57.767,53.787 57.529 C 53.787 57.023,55.662 55.149,56.167 55.149 C 56.356 55.149,56.511 54.996,56.511 54.809 C 56.511 54.621,56.675 54.468,56.875 54.468 C 57.393 54.468,58.119 53.677,57.981 53.263 C 57.917 53.072,58.264 52.882,58.750 52.842 C 59.775 52.757,60.327 52.478,60.126 52.147 C 60.049 52.019,60.200 51.717,60.461 51.476 C 60.722 51.235,60.941 51.158,60.947 51.306 C 60.952 51.454,61.105 51.320,61.287 51.009 C 61.481 50.677,61.957 50.480,62.438 50.533 C 63.014 50.596,63.206 50.485,63.081 50.159 C 62.960 49.842,63.078 49.762,63.451 49.905 C 63.753 50.021,64.000 49.946,64.000 49.739 C 64.000 49.531,64.191 49.361,64.426 49.360 C 64.660 49.358,65.272 49.138,65.787 48.869 C 66.363 48.569,66.723 48.519,66.723 48.740 C 66.723 48.939,67.104 48.850,67.577 48.541 C 68.749 47.772,70.225 47.226,69.957 47.660 C 69.820 47.883,70.044 47.886,70.616 47.668 C 71.093 47.487,71.740 47.437,72.053 47.557 C 72.422 47.698,72.540 47.642,72.389 47.398 C 72.245 47.164,72.418 47.040,72.844 47.072 C 73.222 47.100,73.532 47.244,73.532 47.392 M234.213 123.275 C 234.494 123.304,234.927 123.488,235.175 123.684 C 235.498 123.939,235.704 123.916,235.898 123.601 C 236.082 123.304,236.243 123.279,236.395 123.525 C 236.547 123.770,236.900 123.782,237.478 123.562 C 237.950 123.383,238.258 123.364,238.161 123.521 C 238.064 123.677,238.533 123.826,239.202 123.851 C 239.872 123.877,240.656 124.093,240.946 124.332 C 241.362 124.675,241.502 124.677,241.615 124.343 C 241.708 124.065,241.952 124.021,242.325 124.214 C 242.638 124.375,243.195 124.459,243.563 124.401 C 243.931 124.342,244.391 124.416,244.584 124.566 C 245.228 125.063,246.468 125.229,246.479 124.819 C 246.485 124.588,246.661 124.643,246.904 124.950 C 247.139 125.246,247.986 125.519,248.851 125.578 C 249.693 125.635,250.459 125.805,250.553 125.956 C 250.647 126.106,251.030 126.283,251.404 126.349 C 251.779 126.414,252.168 126.578,252.269 126.713 C 252.370 126.847,252.956 126.995,253.571 127.042 C 254.187 127.089,254.766 127.250,254.858 127.399 C 254.950 127.548,255.169 127.582,255.345 127.473 C 255.521 127.365,255.752 127.504,255.859 127.783 C 255.966 128.063,256.339 128.236,256.688 128.169 C 257.086 128.092,257.262 128.204,257.160 128.469 C 257.050 128.757,257.328 128.869,258.030 128.820 C 258.598 128.781,258.975 128.889,258.869 129.061 C 258.763 129.232,258.495 129.282,258.274 129.172 C 258.053 129.061,258.166 129.209,258.525 129.501 C 259.050 129.927,259.280 129.949,259.697 129.611 C 260.110 129.277,260.163 129.279,259.960 129.617 C 259.723 130.012,260.246 130.197,261.282 130.086 C 261.473 130.066,261.779 130.392,261.963 130.812 C 262.147 131.231,262.425 131.498,262.581 131.404 C 262.736 131.311,263.076 131.617,263.335 132.085 C 263.594 132.553,263.811 132.752,263.818 132.526 C 263.826 132.242,264.134 132.292,264.824 132.688 C 265.371 133.001,265.756 133.360,265.679 133.484 C 265.469 133.824,266.415 134.506,266.943 134.395 C 267.197 134.342,267.366 134.489,267.319 134.723 C 267.272 134.957,267.455 135.149,267.725 135.149 C 267.996 135.149,268.443 135.472,268.719 135.867 C 269.025 136.303,269.387 136.483,269.642 136.325 C 269.888 136.173,269.976 136.205,269.854 136.403 C 269.597 136.818,270.580 138.289,270.958 138.055 C 271.446 137.754,272.575 139.042,272.514 139.830 C 272.471 140.383,272.639 140.596,273.120 140.596 C 273.699 140.596,273.725 140.669,273.321 141.155 C 272.905 141.657,272.945 141.687,273.702 141.447 C 274.442 141.212,274.493 141.245,274.107 141.710 C 273.737 142.155,273.766 142.272,274.286 142.437 C 274.627 142.545,275.283 143.324,275.743 144.168 C 276.204 145.012,276.815 145.714,277.099 145.729 C 277.449 145.747,277.479 145.812,277.191 145.928 C 276.957 146.022,276.766 146.325,276.766 146.602 C 276.766 146.878,276.919 147.009,277.106 146.894 C 277.294 146.778,277.447 146.917,277.447 147.203 C 277.447 147.504,277.644 147.648,277.914 147.544 C 278.259 147.412,278.337 147.596,278.212 148.250 C 278.091 148.881,278.177 149.106,278.511 149.035 C 278.826 148.969,278.942 149.198,278.866 149.739 C 278.794 150.249,278.888 150.459,279.121 150.315 C 279.340 150.180,279.489 150.373,279.489 150.788 C 279.489 151.174,279.604 151.491,279.745 151.492 C 279.885 151.493,280.177 151.877,280.394 152.343 C 280.610 152.810,280.650 153.108,280.483 153.004 C 280.315 152.900,280.269 153.053,280.380 153.342 C 280.491 153.632,280.757 153.763,280.972 153.635 C 281.186 153.506,281.153 153.659,280.898 153.973 C 280.502 154.461,280.512 154.575,280.961 154.748 C 281.252 154.859,281.413 155.147,281.321 155.389 C 281.228 155.630,281.380 156.055,281.658 156.333 C 281.936 156.611,282.272 157.435,282.404 158.164 C 282.536 158.893,282.826 159.872,283.049 160.340 C 283.272 160.809,283.393 161.460,283.319 161.787 C 283.245 162.115,283.349 162.383,283.550 162.383 C 283.750 162.383,283.915 163.005,283.915 163.765 C 283.915 164.561,284.053 165.061,284.242 164.944 C 284.433 164.826,284.530 165.241,284.474 165.946 C 284.412 166.734,284.527 167.149,284.807 167.149 C 285.102 167.149,285.176 167.504,285.047 168.297 C 284.938 168.971,285.018 169.542,285.240 169.680 C 285.498 169.839,285.513 170.112,285.285 170.538 C 285.041 170.994,285.089 171.277,285.462 171.587 C 285.755 171.830,285.887 172.281,285.772 172.644 C 285.653 173.019,285.736 173.277,285.976 173.277 C 286.274 173.277,286.282 173.396,286.007 173.727 C 285.801 173.975,285.731 174.550,285.850 175.004 C 285.969 175.458,286.131 176.942,286.209 178.301 C 286.288 179.661,286.476 180.696,286.627 180.603 C 287.025 180.357,286.873 181.568,286.468 181.872 C 286.248 182.037,286.275 182.223,286.543 182.397 C 286.796 182.561,287.034 183.922,287.152 185.886 C 287.258 187.657,287.422 189.362,287.516 189.673 C 287.610 189.985,287.528 190.339,287.333 190.460 C 286.865 190.749,286.857 197.106,287.325 197.106 C 287.555 197.106,287.665 202.748,287.653 213.957 C 287.642 224.667,287.514 230.809,287.303 230.809 C 287.090 230.809,286.975 241.013,286.983 259.319 L 286.994 287.830 262.561 287.834 L 238.128 287.839 262.638 287.661 L 287.149 287.483 262.723 287.401 L 238.298 287.319 238.255 244.340 C 238.231 220.702,238.151 200.136,238.077 198.638 C 237.942 195.893,237.931 195.415,237.989 194.638 C 238.006 194.404,237.873 193.485,237.693 192.596 C 237.511 191.702,237.497 190.979,237.661 190.979 C 237.824 190.979,237.957 190.740,237.957 190.448 C 237.957 190.156,237.820 190.002,237.653 190.106 C 237.221 190.372,237.051 189.696,237.081 187.830 C 237.095 186.941,236.969 186.168,236.802 186.112 C 236.635 186.056,236.477 185.634,236.452 185.175 C 236.426 184.716,236.261 184.111,236.086 183.830 C 235.910 183.549,235.813 182.953,235.871 182.505 C 235.953 181.869,235.854 181.738,235.417 181.905 C 235.110 182.023,234.942 181.984,235.044 181.819 C 235.147 181.653,235.009 181.091,234.739 180.570 C 234.469 180.050,234.325 179.497,234.420 179.344 C 234.516 179.190,234.431 179.064,234.233 179.064 C 234.035 179.064,233.872 178.823,233.872 178.529 C 233.872 178.235,233.631 177.753,233.337 177.458 C 232.902 177.023,232.886 176.869,233.251 176.637 C 233.580 176.428,233.514 176.349,233.009 176.346 C 232.548 176.342,232.297 176.098,232.261 175.619 C 232.231 175.223,231.892 174.678,231.507 174.408 C 231.123 174.139,230.809 173.716,230.809 173.467 C 230.809 173.063,229.657 172.471,229.034 172.555 C 228.900 172.573,228.874 172.370,228.976 172.103 C 229.156 171.635,226.842 169.872,226.049 169.872 C 225.858 169.872,225.702 169.724,225.702 169.543 C 225.702 169.361,225.466 169.303,225.178 169.414 C 224.844 169.542,224.689 169.446,224.752 169.148 C 224.818 168.839,224.592 168.717,224.085 168.787 C 223.664 168.846,223.319 168.731,223.319 168.532 C 223.319 168.333,223.089 168.170,222.809 168.170 C 222.528 168.170,222.298 168.043,222.298 167.887 C 222.298 167.730,222.106 167.586,221.872 167.564 C 221.402 167.522,220.072 167.274,218.637 166.962 C 218.123 166.850,217.253 166.766,216.705 166.775 C 216.157 166.783,215.544 166.662,215.343 166.504 C 214.800 166.077,208.968 166.103,208.097 166.536 C 207.536 166.815,207.217 166.807,206.853 166.505 C 206.557 166.260,206.317 166.231,206.246 166.434 C 206.181 166.617,205.338 166.815,204.372 166.872 C 203.407 166.930,202.688 167.092,202.775 167.233 C 202.909 167.449,201.246 167.659,200.426 167.530 C 200.285 167.508,200.209 167.681,200.255 167.915 C 200.307 168.173,200.051 168.301,199.605 168.239 C 199.200 168.183,198.770 168.298,198.648 168.494 C 198.527 168.691,198.045 168.851,197.577 168.851 C 197.109 168.851,196.809 168.986,196.912 169.152 C 197.168 169.567,195.202 170.338,194.691 170.023 C 194.439 169.867,194.366 169.910,194.504 170.133 C 194.766 170.557,193.782 171.664,193.370 171.409 C 193.217 171.315,193.005 171.467,192.897 171.747 C 192.790 172.026,192.477 172.255,192.201 172.255 C 191.925 172.255,191.590 172.432,191.457 172.648 C 191.294 172.913,191.371 172.951,191.692 172.765 C 191.955 172.613,191.787 172.860,191.319 173.315 C 190.792 173.826,190.373 174.009,190.218 173.794 C 190.060 173.575,189.966 173.606,189.963 173.877 C 189.955 174.548,188.474 176.672,188.011 176.677 C 187.782 176.679,187.684 176.910,187.792 177.191 C 187.900 177.472,187.814 177.702,187.602 177.702 C 187.227 177.702,186.388 179.319,186.498 179.830 C 186.528 179.970,186.382 180.085,186.173 180.085 C 185.960 180.085,185.871 180.385,185.971 180.766 C 186.069 181.141,186.010 181.362,185.841 181.257 C 185.671 181.152,185.532 181.314,185.532 181.617 C 185.532 181.947,185.374 182.070,185.139 181.925 C 184.890 181.771,184.838 181.832,184.998 182.090 C 185.137 182.314,185.004 182.874,184.702 183.334 C 184.297 183.952,184.267 184.172,184.588 184.175 C 184.888 184.179,184.905 184.257,184.644 184.431 C 184.436 184.568,184.309 184.957,184.361 185.296 C 184.430 185.743,184.344 185.817,184.043 185.568 C 183.730 185.308,183.662 185.499,183.763 186.361 C 183.836 186.986,183.711 187.840,183.487 188.260 C 183.161 188.870,183.171 189.081,183.539 189.315 C 183.879 189.530,183.888 189.608,183.574 189.612 C 183.340 189.615,183.149 189.856,183.149 190.148 C 183.149 190.440,182.994 190.583,182.805 190.466 C 182.593 190.335,182.461 190.819,182.462 191.722 C 182.464 193.868,182.388 194.383,182.071 194.383 C 181.915 194.383,181.787 194.622,181.787 194.914 C 181.787 195.228,181.947 195.345,182.180 195.202 C 182.449 195.036,182.480 195.110,182.278 195.437 C 182.115 195.700,181.928 197.055,181.862 198.448 C 181.796 199.841,181.599 201.248,181.424 201.574 C 181.232 201.933,181.106 219.044,181.106 244.744 L 181.106 287.319 156.851 287.401 L 132.596 287.483 156.936 287.661 L 181.277 287.839 156.936 287.834 L 132.596 287.830 132.596 207.660 L 132.596 127.489 156.085 127.319 L 179.574 127.149 179.480 137.787 C 179.405 146.233,179.475 148.430,179.820 148.449 C 180.060 148.463,179.949 148.605,179.574 148.766 C 179.024 149.003,179.130 149.063,180.134 149.082 C 180.957 149.098,181.442 148.929,181.577 148.578 C 181.709 148.233,181.633 148.120,181.358 148.253 C 181.126 148.365,181.281 148.201,181.702 147.889 C 182.123 147.577,182.468 147.116,182.468 146.865 C 182.468 146.615,182.791 146.109,183.185 145.741 C 183.580 145.374,183.800 144.908,183.676 144.707 C 183.551 144.505,183.611 144.340,183.810 144.340 C 184.008 144.340,184.132 144.149,184.085 143.915 C 184.038 143.681,184.191 143.528,184.426 143.574 C 184.660 143.621,184.851 143.497,184.851 143.299 C 184.851 143.101,185.004 143.033,185.191 143.149 C 185.379 143.265,185.532 143.053,185.532 142.678 C 185.532 142.304,185.685 141.903,185.872 141.787 C 186.060 141.672,186.213 141.748,186.213 141.957 C 186.213 142.167,186.352 142.252,186.521 142.147 C 186.691 142.043,186.743 141.627,186.638 141.223 C 186.517 140.761,186.577 140.571,186.801 140.709 C 186.997 140.830,187.236 140.624,187.334 140.251 C 187.431 139.879,187.755 139.574,188.053 139.574 C 188.352 139.574,188.596 139.319,188.596 139.007 C 188.596 138.695,188.685 138.529,188.795 138.639 C 189.060 138.904,190.659 137.501,190.460 137.179 C 190.375 137.041,190.533 136.739,190.812 136.508 C 191.091 136.276,191.319 136.211,191.319 136.363 C 191.319 136.515,191.797 136.151,192.381 135.554 C 192.965 134.957,193.571 134.468,193.727 134.468 C 193.884 134.468,194.395 134.085,194.863 133.617 C 195.331 133.149,195.934 132.766,196.203 132.766 C 196.473 132.766,196.781 132.536,196.889 132.255 C 196.997 131.974,197.329 131.745,197.626 131.745 C 197.924 131.745,198.083 131.608,197.980 131.441 C 197.877 131.273,198.139 131.049,198.562 130.943 C 198.986 130.837,199.674 130.431,200.092 130.042 C 200.509 129.653,200.851 129.505,200.851 129.713 C 200.851 129.924,201.088 129.854,201.386 129.556 C 201.680 129.262,202.072 129.021,202.257 129.021 C 202.442 129.021,202.489 128.853,202.362 128.647 C 202.200 128.385,202.323 128.369,202.767 128.592 C 203.396 128.908,205.147 128.324,204.753 127.930 C 204.655 127.832,205.077 127.562,205.691 127.331 C 207.347 126.707,208.439 126.255,209.102 125.918 C 209.427 125.752,209.992 125.617,210.358 125.617 C 210.724 125.617,211.118 125.464,211.234 125.277 C 211.541 124.780,212.164 124.859,211.910 125.362 C 211.791 125.596,211.921 125.510,212.197 125.171 C 212.520 124.776,212.781 124.686,212.925 124.918 C 213.075 125.161,213.315 125.117,213.649 124.783 C 213.923 124.509,214.373 124.371,214.648 124.476 C 214.936 124.587,215.151 124.473,215.154 124.207 C 215.158 123.823,215.210 123.824,215.457 124.214 C 215.620 124.472,215.926 124.576,216.138 124.446 C 216.349 124.315,216.450 124.092,216.362 123.949 C 216.274 123.807,217.037 123.729,218.058 123.776 C 219.079 123.823,219.915 123.725,219.915 123.559 C 219.915 123.392,220.116 123.333,220.363 123.427 C 220.609 123.522,221.183 123.451,221.639 123.270 C 222.293 123.011,231.634 123.015,234.213 123.275 M100.085 207.149 L 100.085 287.319 75.746 287.319 L 51.407 287.319 51.321 207.321 L 51.234 127.324 75.574 127.234 C 88.962 127.185,99.953 127.107,100.000 127.062 C 100.047 127.016,100.085 163.055,100.085 207.149 M87.745 287.915 C 81.051 287.966,70.098 287.966,63.404 287.915 C 56.711 287.863,62.187 287.821,75.574 287.821 C 88.962 287.821,94.438 287.863,87.745 287.915 M371.410 293.787 C 371.406 294.163,371.048 294.285,370.054 294.248 C 369.201 294.216,368.731 294.342,368.778 294.588 C 368.818 294.803,368.568 294.930,368.221 294.871 C 367.875 294.812,367.682 294.910,367.794 295.090 C 367.905 295.271,367.759 295.509,367.470 295.620 C 367.113 295.757,367.025 295.686,367.197 295.400 C 367.397 295.066,367.341 295.067,366.928 295.401 C 366.640 295.634,366.308 295.727,366.190 295.608 C 366.071 295.490,365.664 295.759,365.284 296.207 C 364.679 296.921,364.618 296.938,364.784 296.340 C 364.955 295.729,364.916 295.737,364.403 296.426 C 364.089 296.847,363.659 297.192,363.448 297.192 C 363.237 297.192,362.623 297.572,362.083 298.036 C 361.544 298.499,360.931 298.776,360.722 298.651 C 360.512 298.525,360.570 298.710,360.851 299.062 C 361.309 299.636,361.306 299.681,360.819 299.499 C 360.499 299.379,360.089 299.555,359.821 299.928 C 359.570 300.275,359.230 300.476,359.064 300.373 C 358.899 300.271,358.812 300.470,358.871 300.817 C 358.945 301.253,358.743 301.480,358.213 301.556 C 357.791 301.615,357.447 301.816,357.447 302.001 C 357.447 302.186,357.638 302.228,357.872 302.093 C 358.106 301.958,357.952 302.228,357.529 302.694 C 357.106 303.159,356.871 303.651,357.008 303.788 C 357.144 303.924,356.986 303.932,356.656 303.806 C 356.157 303.614,356.084 303.726,356.219 304.469 C 356.366 305.281,356.140 305.523,355.340 305.409 C 355.211 305.391,355.165 305.686,355.238 306.065 C 355.415 306.984,355.080 307.795,354.635 307.520 C 354.439 307.398,354.370 307.449,354.483 307.631 C 354.596 307.814,354.476 308.374,354.216 308.875 C 353.869 309.544,353.851 309.789,354.148 309.792 C 354.414 309.796,354.392 309.900,354.084 310.095 C 353.826 310.258,353.714 310.553,353.836 310.750 C 353.957 310.946,353.835 311.232,353.563 311.384 C 353.291 311.536,353.091 311.890,353.118 312.170 C 353.167 312.683,352.731 317.439,352.500 318.921 C 352.407 319.516,352.480 319.627,352.794 319.367 C 353.109 319.105,353.220 319.288,353.246 320.106 C 353.298 321.792,353.643 323.433,354.045 323.918 C 354.311 324.239,354.291 324.409,353.972 324.543 C 353.640 324.681,353.670 324.815,354.096 325.086 C 354.460 325.318,354.592 325.706,354.468 326.180 C 354.340 326.667,354.403 326.836,354.653 326.682 C 354.887 326.537,355.186 326.969,355.442 327.820 C 355.668 328.574,355.998 329.191,356.175 329.191 C 356.353 329.191,356.413 329.413,356.309 329.685 C 356.186 330.006,356.283 330.115,356.588 329.998 C 356.929 329.867,357.009 330.034,356.882 330.611 C 356.742 331.244,356.781 331.301,357.072 330.894 C 357.374 330.470,357.437 330.513,357.442 331.149 C 357.444 331.570,357.562 331.877,357.702 331.830 C 357.843 331.783,358.018 331.898,358.092 332.085 C 358.166 332.272,358.661 332.747,359.194 333.139 C 359.726 333.532,360.075 333.939,359.970 334.044 C 359.865 334.150,360.096 334.337,360.485 334.460 C 360.874 334.583,361.191 334.886,361.191 335.132 C 361.191 335.379,361.460 335.677,361.787 335.796 C 362.681 336.119,363.857 336.848,364.787 337.656 C 365.296 338.099,365.621 338.215,365.628 337.955 C 365.635 337.663,365.767 337.690,366.055 338.043 C 366.283 338.323,366.700 338.603,366.980 338.664 C 367.260 338.725,367.534 338.895,367.587 339.043 C 367.641 339.191,368.145 339.258,368.707 339.193 C 369.336 339.120,369.794 339.248,369.902 339.529 C 370.008 339.806,370.542 339.961,371.268 339.924 C 371.923 339.892,372.544 340.002,372.648 340.170 C 372.850 340.497,380.537 340.461,381.106 340.130 C 381.294 340.022,381.600 339.923,381.787 339.910 C 382.714 339.847,385.021 338.999,385.021 338.721 C 385.021 338.547,385.251 338.493,385.532 338.600 C 385.814 338.709,386.043 338.610,386.043 338.380 C 386.043 338.131,386.316 338.035,386.723 338.141 C 387.098 338.239,387.404 338.180,387.404 338.011 C 387.404 337.841,387.634 337.702,387.915 337.702 C 388.196 337.702,388.426 337.454,388.426 337.152 C 388.426 336.751,388.653 336.645,389.260 336.761 C 389.719 336.849,390.083 336.828,390.071 336.716 C 389.977 335.898,390.155 335.516,390.428 335.947 C 390.643 336.286,390.775 336.179,390.937 335.534 C 391.096 334.900,391.310 334.721,391.719 334.878 C 392.097 335.023,392.201 334.963,392.036 334.696 C 391.890 334.460,391.997 334.298,392.301 334.298 C 392.933 334.298,393.921 332.950,393.632 332.482 C 393.505 332.277,393.648 332.227,393.987 332.357 C 394.498 332.553,394.606 332.416,394.528 331.676 C 394.514 331.545,394.830 331.317,395.231 331.169 C 395.631 331.021,395.870 330.755,395.761 330.579 C 395.652 330.403,395.906 330.019,396.325 329.725 C 396.745 329.432,396.888 329.191,396.643 329.191 C 396.399 329.191,396.269 329.000,396.355 328.766 C 396.440 328.532,396.674 328.376,396.873 328.419 C 397.072 328.462,397.176 328.193,397.105 327.823 C 396.962 327.082,397.445 326.897,397.756 327.574 C 397.863 327.809,397.860 327.636,397.748 327.191 C 397.636 326.747,397.681 326.468,397.849 326.571 C 398.016 326.675,398.187 326.349,398.229 325.848 C 398.270 325.346,398.456 324.885,398.641 324.823 C 398.827 324.760,398.979 324.365,398.979 323.943 C 398.979 323.522,399.094 323.063,399.234 322.922 C 399.793 322.364,399.908 313.984,399.364 313.440 C 399.152 313.229,398.981 312.894,398.984 312.698 C 398.987 312.501,399.138 312.570,399.319 312.851 C 399.517 313.158,399.651 313.200,399.654 312.956 C 399.657 312.733,399.513 312.460,399.334 312.350 C 399.155 312.239,399.089 311.939,399.187 311.683 C 399.285 311.427,399.216 311.126,399.034 311.013 C 398.851 310.900,398.782 310.502,398.880 310.127 C 398.980 309.747,398.890 309.447,398.678 309.447 C 398.469 309.447,398.298 309.073,398.298 308.616 C 398.298 308.159,398.134 307.684,397.934 307.560 C 397.734 307.437,397.650 307.129,397.747 306.877 C 397.856 306.592,397.748 306.485,397.462 306.595 C 397.130 306.722,397.020 306.489,397.070 305.763 C 397.117 305.086,397.003 304.807,396.723 304.915 C 396.436 305.025,396.366 304.826,396.501 304.282 C 396.608 303.846,396.579 303.597,396.435 303.728 C 396.182 303.960,395.234 303.241,395.234 302.817 C 395.234 302.702,394.848 302.221,394.376 301.750 C 393.905 301.278,393.601 300.759,393.701 300.597 C 393.801 300.435,393.704 300.192,393.485 300.056 C 393.222 299.893,393.178 299.958,393.356 300.247 C 393.538 300.540,393.471 300.627,393.154 300.512 C 392.894 300.418,392.721 300.164,392.769 299.948 C 392.818 299.732,392.627 299.467,392.346 299.359 C 392.064 299.251,391.910 299.039,392.004 298.888 C 392.097 298.737,391.905 298.653,391.576 298.702 C 391.248 298.752,390.793 298.529,390.567 298.209 C 390.340 297.888,389.689 297.433,389.120 297.197 C 388.551 296.961,388.085 296.557,388.085 296.299 C 388.085 295.713,387.521 295.682,387.289 296.255 C 387.174 296.540,387.109 296.508,387.091 296.158 C 387.074 295.828,386.686 295.605,386.043 295.556 C 385.482 295.514,384.482 295.175,383.820 294.803 C 383.159 294.432,382.316 294.128,381.947 294.128 C 381.578 294.128,381.274 293.936,381.271 293.702 C 381.268 293.391,381.187 293.401,380.972 293.741 C 380.724 294.132,380.649 294.132,380.493 293.741 C 380.337 293.350,380.256 293.350,379.983 293.738 C 379.743 294.081,379.596 294.097,379.413 293.802 C 379.118 293.325,372.491 293.406,372.191 293.891 C 372.086 294.061,371.868 293.993,371.707 293.738 C 371.469 293.362,371.414 293.371,371.410 293.787 M377.957 297.059 C 378.098 297.085,378.605 297.126,379.084 297.149 C 379.617 297.175,379.866 297.335,379.726 297.562 C 379.579 297.800,379.845 297.908,380.472 297.866 C 382.011 297.762,382.355 297.845,382.101 298.255 C 381.937 298.521,382.238 298.595,383.079 298.497 C 383.773 298.416,384.267 298.500,384.232 298.694 C 384.198 298.880,384.400 299.050,384.681 299.073 C 385.610 299.146,387.406 299.976,387.236 300.253 C 387.066 300.527,388.039 301.090,388.511 300.990 C 388.651 300.960,388.766 301.098,388.766 301.297 C 388.766 301.495,388.919 301.563,389.106 301.447 C 389.294 301.331,389.447 301.516,389.447 301.857 C 389.447 302.198,389.791 302.634,390.213 302.825 C 390.634 303.017,390.942 303.356,390.896 303.579 C 390.851 303.803,391.272 304.222,391.832 304.512 C 392.393 304.802,392.851 305.248,392.851 305.504 C 392.851 305.760,393.078 306.057,393.356 306.163 C 393.642 306.273,393.774 306.583,393.661 306.878 C 393.545 307.181,393.687 307.485,394.001 307.606 C 394.413 307.764,394.460 307.964,394.199 308.451 C 393.914 308.983,394.001 309.126,394.716 309.305 C 395.570 309.519,395.922 310.128,395.192 310.128 C 394.923 310.128,394.932 310.274,395.222 310.623 C 395.448 310.896,395.534 311.280,395.412 311.477 C 395.290 311.674,395.397 311.914,395.648 312.010 C 395.950 312.126,396.092 312.732,396.065 313.795 C 396.043 314.680,396.192 315.517,396.396 315.654 C 396.649 315.825,396.631 315.906,396.340 315.910 C 396.081 315.913,395.915 316.387,395.915 317.126 C 395.915 317.965,396.038 318.262,396.313 318.092 C 396.594 317.918,396.633 318.038,396.444 318.497 C 396.297 318.856,396.118 319.592,396.047 320.134 C 395.975 320.676,395.746 321.325,395.537 321.577 C 395.329 321.828,395.240 322.248,395.340 322.510 C 395.441 322.772,395.310 323.290,395.049 323.662 C 394.789 324.034,394.639 324.669,394.717 325.072 C 394.795 325.479,394.714 325.717,394.535 325.606 C 394.358 325.496,394.194 325.569,394.170 325.767 C 394.147 325.965,394.105 326.319,394.077 326.553 C 394.050 326.787,393.776 326.937,393.468 326.885 C 393.055 326.816,392.934 327.014,393.002 327.642 C 393.054 328.109,392.963 328.410,392.801 328.309 C 392.639 328.209,392.401 328.405,392.272 328.744 C 391.942 329.616,391.278 330.224,390.965 329.941 C 390.819 329.810,390.792 329.866,390.906 330.066 C 391.020 330.266,390.747 330.824,390.300 331.306 C 389.853 331.788,389.580 332.275,389.694 332.389 C 389.808 332.503,389.562 332.596,389.148 332.596 C 388.733 332.596,388.028 332.962,387.580 333.411 C 387.131 333.859,386.679 334.140,386.574 334.035 C 386.469 333.930,386.383 334.041,386.383 334.281 C 386.383 334.566,386.080 334.660,385.512 334.551 C 384.885 334.431,384.690 334.511,384.814 334.835 C 384.917 335.102,384.809 335.216,384.548 335.116 C 384.307 335.024,383.930 335.163,383.712 335.427 C 383.493 335.690,382.931 335.864,382.464 335.812 C 381.996 335.761,381.700 335.859,381.806 336.030 C 381.994 336.334,381.324 336.474,380.200 336.363 C 379.889 336.333,379.534 336.471,379.411 336.670 C 379.288 336.869,379.044 336.944,378.870 336.837 C 378.696 336.729,378.553 336.769,378.553 336.925 C 378.553 337.082,377.366 337.109,375.915 336.987 C 374.464 336.865,373.138 336.846,372.969 336.945 C 372.799 337.045,372.778 336.937,372.921 336.705 C 373.114 336.394,372.837 336.299,371.868 336.345 C 370.021 336.431,369.801 336.378,370.383 335.984 C 370.761 335.728,370.650 335.695,369.954 335.857 C 369.243 336.023,369.056 335.963,369.188 335.612 C 369.289 335.343,369.006 334.984,368.511 334.755 C 367.594 334.332,367.398 334.573,368.085 335.281 C 368.319 335.522,367.898 335.367,367.149 334.935 C 366.400 334.504,365.584 333.916,365.336 333.629 C 365.029 333.273,364.965 333.259,365.134 333.585 C 365.297 333.899,365.247 333.979,364.989 333.820 C 364.773 333.686,364.596 333.412,364.596 333.211 C 364.596 332.704,362.830 331.233,362.481 331.449 C 362.324 331.546,362.238 331.499,362.289 331.344 C 362.341 331.190,362.265 331.029,362.121 330.986 C 361.593 330.829,360.927 330.035,361.094 329.760 C 361.188 329.605,360.789 329.012,360.207 328.443 C 359.625 327.874,359.147 327.159,359.144 326.853 C 359.139 326.367,359.093 326.362,358.774 326.809 C 358.479 327.221,358.440 327.177,358.571 326.575 C 358.667 326.134,358.543 325.758,358.266 325.652 C 358.009 325.553,357.881 325.257,357.982 324.994 C 358.084 324.730,357.864 323.977,357.494 323.319 C 356.978 322.399,356.914 322.023,357.220 321.692 C 357.525 321.362,357.518 321.318,357.191 321.502 C 356.886 321.675,356.766 321.401,356.766 320.531 C 356.766 319.864,356.639 319.319,356.484 319.319 C 355.992 319.319,355.998 315.502,356.491 315.155 C 356.855 314.899,356.852 314.808,356.472 314.656 C 356.167 314.534,356.132 314.394,356.371 314.246 C 356.571 314.123,356.772 313.462,356.818 312.778 C 356.864 312.093,357.025 311.609,357.174 311.702 C 357.324 311.794,357.447 311.478,357.447 310.999 C 357.447 310.520,357.574 310.128,357.730 310.128 C 357.887 310.128,358.027 309.936,358.044 309.702 C 358.125 308.525,358.511 307.644,359.218 307.020 C 359.648 306.641,359.793 306.438,359.541 306.568 C 359.169 306.760,359.156 306.666,359.472 306.074 C 359.691 305.666,360.033 305.447,360.245 305.578 C 360.494 305.732,360.551 305.617,360.409 305.247 C 360.269 304.884,360.364 304.681,360.672 304.681 C 360.937 304.681,361.367 304.375,361.628 304.002 C 361.890 303.629,362.194 303.414,362.305 303.525 C 362.416 303.636,362.424 303.408,362.322 303.018 C 362.185 302.494,362.346 302.228,362.941 301.996 C 363.383 301.824,364.089 301.355,364.511 300.956 C 364.932 300.556,365.277 300.322,365.277 300.437 C 365.277 300.551,365.519 300.402,365.815 300.106 C 366.111 299.810,366.494 299.655,366.666 299.762 C 366.838 299.868,366.979 299.817,366.979 299.649 C 366.979 299.481,367.591 299.141,368.340 298.894 C 369.142 298.629,369.713 298.221,369.729 297.903 C 369.746 297.552,369.816 297.511,369.927 297.787 C 370.117 298.257,371.598 298.030,372.381 297.410 C 372.641 297.204,373.825 297.084,375.054 297.140 C 376.726 297.215,377.199 297.138,377.003 296.822 C 376.821 296.527,376.886 296.494,377.224 296.708 C 377.487 296.875,377.817 297.032,377.957 297.059 M367.773 304.833 C 367.773 305.124,367.901 305.362,368.057 305.362 C 368.551 305.362,368.411 328.766,367.915 328.966 C 367.588 329.098,367.592 329.144,367.935 329.165 C 368.180 329.179,368.309 329.306,368.223 329.447 C 368.136 329.587,368.955 329.702,370.044 329.702 L 372.023 329.702 371.969 324.426 L 371.915 319.149 373.787 319.265 C 375.856 319.393,377.351 320.376,377.076 321.428 C 376.991 321.753,377.090 321.986,377.296 321.946 C 377.502 321.905,377.678 322.057,377.687 322.283 C 377.695 322.509,378.009 322.926,378.383 323.209 C 378.846 323.558,378.911 323.726,378.586 323.734 C 378.263 323.741,378.346 323.950,378.842 324.380 C 379.245 324.730,379.574 325.199,379.574 325.422 C 379.574 325.645,379.696 325.752,379.844 325.661 C 379.993 325.569,380.137 325.803,380.166 326.180 C 380.194 326.557,380.494 327.121,380.833 327.433 C 382.087 328.589,382.470 329.234,381.750 328.979 C 381.241 328.799,381.190 328.842,381.506 329.184 C 382.830 330.617,387.240 329.431,386.403 327.867 C 386.218 327.521,386.176 327.117,386.310 326.969 C 386.444 326.821,386.277 326.799,385.940 326.921 C 385.549 327.061,385.408 327.009,385.550 326.779 C 385.674 326.579,385.448 326.112,385.050 325.741 C 384.651 325.370,384.430 324.896,384.559 324.688 C 384.708 324.447,384.597 324.385,384.254 324.516 C 383.581 324.775,383.119 323.741,383.733 323.352 C 384.033 323.161,383.930 323.073,383.404 323.069 C 382.983 323.066,382.638 322.863,382.638 322.617 C 382.638 322.372,382.332 321.842,381.957 321.440 C 381.583 321.038,381.274 320.435,381.271 320.099 C 381.267 319.581,381.217 319.566,380.936 320.000 C 380.747 320.293,380.604 320.341,380.601 320.113 C 380.598 319.894,380.516 319.507,380.418 319.252 C 380.251 318.817,380.786 318.646,382.685 318.527 C 383.033 318.505,383.172 318.296,383.056 317.970 C 382.954 317.682,382.990 317.555,383.137 317.687 C 383.486 318.003,385.703 316.307,385.606 315.798 C 385.565 315.581,385.719 315.441,385.948 315.486 C 386.256 315.547,386.278 315.343,386.034 314.701 C 385.809 314.109,385.816 313.903,386.058 314.052 C 386.294 314.198,386.393 313.242,386.355 311.178 C 386.324 309.477,386.164 308.085,386.000 308.085 C 385.836 308.085,385.702 307.855,385.702 307.574 C 385.702 307.294,385.566 307.064,385.399 307.064 C 385.232 307.064,385.001 306.690,384.886 306.233 C 384.736 305.632,384.490 305.438,384.002 305.531 C 383.631 305.603,383.130 305.479,382.890 305.256 C 382.153 304.575,381.673 304.526,374.610 304.413 C 368.608 304.317,367.773 304.368,367.773 304.833 M376.426 304.934 C 374.974 304.998,372.600 304.998,371.149 304.934 C 369.698 304.870,370.885 304.818,373.787 304.818 C 376.689 304.818,377.877 304.870,376.426 304.934 M379.408 308.091 C 379.525 308.281,379.764 308.349,379.938 308.241 C 380.113 308.133,380.255 308.309,380.255 308.632 C 380.255 308.955,380.358 309.117,380.483 308.992 C 380.978 308.497,381.981 309.859,381.531 310.415 C 381.192 310.834,381.192 310.888,381.532 310.684 C 381.835 310.501,381.957 310.727,381.957 311.469 C 381.957 312.073,381.778 312.513,381.532 312.516 C 381.204 312.520,381.208 312.585,381.548 312.801 C 381.901 313.025,381.885 313.168,381.467 313.515 C 381.179 313.754,381.001 314.047,381.070 314.166 C 381.140 314.285,380.678 314.632,380.045 314.936 C 379.412 315.240,378.894 315.336,378.894 315.149 C 378.894 314.963,378.634 315.020,378.318 315.277 C 378.001 315.534,377.833 315.591,377.945 315.404 C 378.076 315.184,377.077 315.106,375.117 315.183 L 372.085 315.302 372.085 311.670 L 372.085 308.038 375.320 308.147 C 377.099 308.207,378.554 308.140,378.554 308.000 C 378.553 307.625,379.160 307.689,379.408 308.091 " stroke="none" fill="#2c64b4" fill-rule="evenodd"></path><path id="path1" d="M11.631 3.291 C 11.083 3.878,11.603 3.878,12.406 3.291 C 12.857 2.961,12.894 2.837,12.541 2.837 C 12.274 2.837,11.864 3.041,11.631 3.291 M330.128 6.727 C 330.455 7.057,331.087 7.708,331.531 8.174 L 332.339 9.021 331.903 8.170 C 331.433 7.251,330.287 6.128,329.820 6.128 C 329.662 6.128,329.800 6.397,330.128 6.727 M3.287 11.911 C 3.006 12.475,2.917 12.936,3.090 12.936 C 3.263 12.936,3.404 12.794,3.404 12.620 C 3.404 12.446,3.635 12.073,3.918 11.791 C 4.200 11.508,4.289 11.190,4.114 11.082 C 3.940 10.974,3.568 11.348,3.287 11.911 M335.142 13.048 C 335.428 13.485,335.559 13.944,335.434 14.070 C 335.308 14.195,335.391 14.298,335.618 14.298 C 336.111 14.298,335.992 13.278,335.429 12.681 C 334.764 11.976,334.587 12.202,335.142 13.048 M72.353 47.340 C 72.592 47.727,73.532 47.768,73.532 47.392 C 73.532 47.244,73.222 47.100,72.844 47.072 C 72.465 47.043,72.244 47.164,72.353 47.340 M68.936 47.817 L 67.915 48.285 68.965 48.313 C 69.683 48.332,70.014 48.179,70.014 47.830 C 70.014 47.549,70.001 47.326,69.986 47.335 C 69.970 47.343,69.498 47.560,68.936 47.817 M88.539 50.517 C 89.127 51.071,91.302 52.067,90.921 51.607 C 90.673 51.308,90.259 51.064,90.001 51.064 C 89.743 51.064,89.532 50.911,89.532 50.723 C 89.532 50.536,89.277 50.383,88.965 50.383 C 88.652 50.383,88.461 50.443,88.539 50.517 M96.229 56.420 C 96.143 56.563,96.285 56.878,96.546 57.120 C 96.936 57.480,97.021 57.469,97.021 57.055 C 97.021 56.477,96.465 56.031,96.229 56.420 M51.112 60.812 C 50.703 61.725,50.712 61.751,51.249 61.225 C 51.565 60.916,51.762 60.477,51.686 60.250 C 51.611 60.023,51.352 60.276,51.112 60.812 M99.149 60.389 C 99.477 60.638,99.745 61.101,99.745 61.419 C 99.745 61.737,99.885 61.911,100.056 61.805 C 100.227 61.699,100.445 61.805,100.540 62.040 C 100.644 62.299,100.723 62.318,100.739 62.088 C 100.778 61.545,99.430 59.913,98.954 59.926 C 98.734 59.932,98.821 60.140,99.149 60.389 M101.333 63.546 C 100.926 63.954,101.095 64.603,101.665 64.822 C 102.126 64.999,102.151 64.948,101.806 64.533 C 101.576 64.256,101.487 63.870,101.608 63.674 C 101.853 63.277,101.682 63.197,101.333 63.546 M103.716 73.078 C 103.349 73.446,103.454 77.957,103.830 77.957 C 104.026 77.957,104.170 76.879,104.170 75.404 C 104.170 72.840,104.135 72.659,103.716 73.078 M47.168 77.245 C 47.063 77.415,47.124 77.913,47.303 78.352 C 47.602 79.083,47.624 79.057,47.572 78.043 C 47.511 76.856,47.465 76.766,47.168 77.245 M103.370 81.101 C 103.261 81.519,103.281 81.970,103.415 82.104 C 103.550 82.237,103.692 81.895,103.731 81.344 C 103.816 80.153,103.647 80.040,103.370 81.101 M48.773 86.104 C 48.800 86.466,48.944 86.686,49.092 86.595 C 49.469 86.361,49.430 85.447,49.042 85.447 C 48.867 85.447,48.745 85.743,48.773 86.104 M99.535 90.358 C 99.227 91.020,99.244 91.144,99.620 90.999 C 99.876 90.901,100.085 90.531,100.085 90.176 C 100.085 89.336,99.994 89.366,99.535 90.358 M95.489 95.747 L 94.809 96.429 95.660 95.998 C 96.752 95.445,96.780 95.418,96.448 95.227 C 96.295 95.138,95.864 95.372,95.489 95.747 M92.647 97.932 C 92.090 98.531,92.223 98.712,93.009 98.425 C 93.338 98.305,93.486 98.044,93.349 97.825 C 93.175 97.547,92.976 97.577,92.647 97.932 M225.290 123.146 C 226.467 123.213,228.306 123.212,229.375 123.145 C 230.444 123.077,229.481 123.023,227.234 123.024 C 224.987 123.024,224.112 123.079,225.290 123.146 M244.207 124.766 C 244.488 125.047,244.911 125.277,245.147 125.277 C 245.388 125.277,245.287 125.057,244.916 124.777 C 244.049 124.121,243.554 124.113,244.207 124.766 M75.404 127.319 L 50.894 127.496 75.318 127.578 L 99.743 127.660 99.830 207.574 L 99.916 287.489 100.001 207.234 C 100.047 163.094,100.047 127.015,100.000 127.060 C 99.953 127.105,88.885 127.222,75.404 127.319 M156.085 127.319 L 132.596 127.496 155.825 127.578 L 179.054 127.660 179.144 138.099 C 179.221 147.039,179.307 148.559,179.745 148.679 C 180.133 148.784,180.151 148.744,179.820 148.510 C 179.479 148.270,179.405 145.905,179.480 137.591 C 179.532 131.754,179.574 127.015,179.574 127.060 C 179.574 127.105,169.004 127.222,156.085 127.319 M260.426 130.455 C 260.426 130.603,260.732 130.723,261.106 130.723 C 261.481 130.723,261.787 130.580,261.787 130.404 C 261.787 130.229,261.481 130.108,261.106 130.136 C 260.732 130.164,260.426 130.308,260.426 130.455 M263.830 132.429 C 263.830 132.815,265.114 133.530,265.543 133.384 C 265.716 133.325,265.401 133.016,264.843 132.697 C 264.286 132.378,263.830 132.257,263.830 132.429 M271.196 138.383 C 271.304 138.664,271.538 138.894,271.716 138.894 C 271.894 138.894,271.971 139.009,271.886 139.149 C 271.801 139.289,271.955 139.611,272.229 139.865 C 272.653 140.257,272.711 140.232,272.619 139.694 C 272.559 139.348,272.219 138.796,271.863 138.468 C 271.070 137.739,270.943 137.723,271.196 138.383 M206.979 166.468 C 206.979 166.655,207.199 166.809,207.469 166.809 C 207.739 166.809,208.054 166.655,208.170 166.468 C 208.286 166.281,208.065 166.128,207.680 166.128 C 207.294 166.128,206.979 166.281,206.979 166.468 M215.319 166.468 C 215.435 166.655,215.827 166.809,216.190 166.809 C 216.554 166.809,216.851 166.655,216.851 166.468 C 216.851 166.281,216.459 166.128,215.980 166.128 C 215.486 166.128,215.200 166.275,215.319 166.468 M195.451 169.770 C 194.916 170.342,195.348 170.316,196.426 169.710 C 197.186 169.283,197.202 169.237,196.570 169.280 C 196.182 169.306,195.678 169.527,195.451 169.770 M191.263 172.825 C 190.951 172.907,190.603 173.218,190.489 173.515 C 190.190 174.295,190.363 174.265,191.288 173.380 C 191.739 172.949,192.045 172.614,191.969 172.635 C 191.892 172.657,191.575 172.742,191.263 172.825 M287.073 188.354 C 287.080 189.626,287.191 190.545,287.318 190.397 C 287.445 190.249,287.439 189.209,287.304 188.085 L 287.058 186.043 287.073 188.354 M237.015 187.574 C 237.015 188.230,237.085 188.498,237.171 188.170 C 237.256 187.843,237.256 187.306,237.171 186.979 C 237.085 186.651,237.015 186.919,237.015 187.574 M237.552 192.170 C 237.629 192.826,237.751 193.362,237.824 193.362 C 237.898 193.362,237.957 192.826,237.957 192.170 C 237.957 191.515,237.835 190.979,237.685 190.979 C 237.536 190.979,237.476 191.515,237.552 192.170 M237.861 195.319 C 237.786 195.460,237.838 195.957,237.977 196.426 C 238.213 197.221,238.232 197.204,238.264 196.170 C 238.297 195.103,238.146 194.786,237.861 195.319 M238.036 199.149 C 238.036 199.804,238.106 200.072,238.192 199.745 C 238.278 199.417,238.278 198.881,238.192 198.553 C 238.106 198.226,238.036 198.494,238.036 199.149 M132.717 287.747 C 132.859 287.889,143.843 287.965,157.126 287.917 L 181.277 287.830 156.868 287.660 C 143.443 287.566,132.575 287.605,132.717 287.747 M262.638 287.660 L 238.128 287.837 262.533 287.918 C 278.525 287.972,287.011 287.883,287.149 287.660 C 287.265 287.472,287.312 287.356,287.254 287.401 C 287.196 287.446,276.119 287.562,262.638 287.660 M63.404 287.915 C 70.098 287.966,81.051 287.966,87.745 287.915 C 94.438 287.863,88.962 287.821,75.574 287.821 C 62.187 287.821,56.711 287.863,63.404 287.915 M372.776 297.178 C 372.500 297.352,372.378 297.598,372.504 297.724 C 372.630 297.850,372.982 297.705,373.285 297.402 C 373.884 296.803,373.580 296.670,372.776 297.178 M387.603 301.058 C 387.847 301.695,388.766 301.822,388.766 301.220 C 388.766 301.001,388.665 300.923,388.542 301.047 C 388.419 301.170,388.109 301.097,387.853 300.885 C 387.486 300.580,387.434 300.617,387.603 301.058 M363.149 301.842 C 362.377 302.248,361.811 303.319,362.368 303.319 C 362.569 303.319,364.255 301.633,364.255 301.431 C 364.255 301.248,364.324 301.223,363.149 301.842 M371.149 304.934 C 372.600 304.998,374.974 304.998,376.426 304.934 C 377.877 304.870,376.689 304.818,373.787 304.818 C 370.885 304.818,369.698 304.870,371.149 304.934 M392.319 305.105 C 392.531 306.126,392.963 306.723,393.483 306.713 C 393.985 306.703,393.981 306.655,393.447 306.250 C 393.119 306.001,392.851 305.632,392.851 305.429 C 392.851 305.227,392.711 304.975,392.541 304.870 C 392.370 304.764,392.270 304.870,392.319 305.105 M367.660 317.106 C 367.660 324.709,367.780 328.851,368.000 328.851 C 368.220 328.851,368.340 324.709,368.340 317.106 C 368.340 309.504,368.220 305.362,368.000 305.362 C 367.780 305.362,367.660 309.504,367.660 317.106 M397.021 306.120 C 397.068 306.349,397.299 306.744,397.535 306.998 C 397.771 307.252,397.862 307.624,397.738 307.825 C 397.604 308.041,397.672 308.091,397.904 307.948 C 398.191 307.771,398.157 307.438,397.777 306.704 C 397.243 305.672,396.871 305.384,397.021 306.120 M358.663 307.599 C 358.351 307.911,358.183 308.254,358.290 308.361 C 358.397 308.468,358.740 308.300,359.052 307.988 C 359.364 307.676,359.532 307.333,359.425 307.226 C 359.318 307.119,358.975 307.287,358.663 307.599 M381.158 309.819 C 381.889 311.324,381.931 311.364,381.866 310.493 C 381.835 310.090,381.537 309.512,381.203 309.210 C 380.621 308.683,380.619 308.709,381.158 309.819 M399.294 311.404 C 399.280 311.545,399.205 311.997,399.128 312.408 C 399.051 312.820,399.101 313.227,399.239 313.311 C 399.377 313.396,399.528 312.944,399.574 312.307 C 399.643 311.367,399.381 310.523,399.294 311.404 M352.553 314.737 C 352.436 315.041,352.361 316.081,352.387 317.049 L 352.434 318.809 352.689 316.596 C 352.953 314.301,352.916 313.790,352.553 314.737 M373.362 315.143 C 374.157 315.215,375.460 315.215,376.255 315.143 C 377.051 315.071,376.400 315.013,374.809 315.013 C 373.217 315.013,372.566 315.071,373.362 315.143 M338.100 315.532 C 337.850 315.690,337.698 316.234,337.760 316.748 C 337.869 317.648,337.884 317.639,338.247 316.456 C 338.453 315.784,338.606 315.236,338.588 315.239 C 338.569 315.242,338.349 315.374,338.100 315.532 M356.123 317.277 C 356.164 318.400,356.325 319.319,356.481 319.319 C 356.638 319.319,356.766 318.400,356.766 317.277 C 356.766 316.074,356.619 315.234,356.408 315.234 C 356.189 315.234,356.078 316.027,356.123 317.277 M337.517 318.961 C 337.524 319.498,337.643 319.866,337.781 319.781 C 337.920 319.695,337.988 319.331,337.933 318.970 C 337.771 317.910,337.503 317.904,337.517 318.961 M375.830 319.988 C 375.830 320.169,376.174 320.497,376.596 320.718 C 377.358 321.118,377.358 321.116,376.713 320.390 C 375.993 319.579,375.830 319.504,375.830 319.988 M1.625 322.244 C 1.814 323.236,1.910 323.266,2.135 322.405 C 2.230 322.043,2.119 321.674,1.888 321.585 C 1.603 321.476,1.519 321.688,1.625 322.244 M394.325 325.030 C 394.106 325.169,393.816 325.741,393.681 326.301 C 393.539 326.893,393.563 327.200,393.739 327.035 C 393.906 326.879,394.062 326.611,394.085 326.440 C 394.109 326.268,394.147 325.965,394.170 325.767 C 394.194 325.569,394.340 325.486,394.496 325.582 C 394.652 325.678,394.780 325.534,394.780 325.262 C 394.780 324.989,394.767 324.768,394.752 324.771 C 394.736 324.774,394.544 324.890,394.325 325.030 M334.072 326.553 C 333.748 327.073,333.522 328.379,333.805 328.096 C 333.917 327.984,334.040 327.687,334.078 327.435 C 334.116 327.184,334.266 326.787,334.413 326.553 C 334.559 326.319,334.602 326.128,334.508 326.128 C 334.415 326.128,334.219 326.319,334.072 326.553 M397.550 326.780 C 397.243 327.138,397.060 327.500,397.143 327.582 C 397.225 327.665,397.060 327.927,396.774 328.163 C 396.105 328.718,396.111 329.191,396.786 329.191 C 397.089 329.191,397.216 329.029,397.083 328.813 C 396.954 328.605,396.987 328.337,397.155 328.217 C 397.444 328.012,398.383 326.128,398.196 326.128 C 398.148 326.128,397.858 326.421,397.550 326.780 M386.441 328.884 C 386.196 329.277,386.083 329.685,386.189 329.792 C 386.296 329.899,386.385 329.769,386.388 329.504 C 386.392 329.106,386.452 329.111,386.723 329.532 C 386.981 329.930,387.055 329.836,387.059 329.106 C 387.065 327.982,387.016 327.965,386.441 328.884 M371.745 329.135 C 371.745 329.373,371.099 329.556,370.128 329.591 L 368.511 329.651 370.004 329.783 C 371.421 329.909,372.480 329.473,371.977 328.970 C 371.849 328.842,371.745 328.916,371.745 329.135 M383.919 329.773 C 384.342 329.854,384.955 329.851,385.281 329.766 C 385.606 329.681,385.260 329.614,384.511 329.618 C 383.762 329.622,383.495 329.691,383.919 329.773 M330.109 331.253 C 329.959 331.828,330.013 331.882,330.410 331.552 C 330.951 331.103,331.052 330.553,330.593 330.553 C 330.427 330.553,330.210 330.868,330.109 331.253 M389.194 331.747 C 388.415 332.154,388.498 332.596,389.353 332.596 C 389.614 332.596,389.741 332.456,389.635 332.284 C 389.529 332.113,389.635 331.904,389.870 331.820 C 390.105 331.736,390.221 331.596,390.128 331.508 C 390.034 331.420,389.614 331.528,389.194 331.747 M365.645 334.066 C 366.834 334.977,368.286 335.562,367.925 334.985 C 367.704 334.631,367.411 334.411,367.275 334.496 C 367.138 334.580,366.930 334.494,366.812 334.303 C 366.694 334.113,366.352 333.957,366.051 333.957 C 365.750 333.957,365.567 334.006,365.645 334.066 M11.574 334.668 C 11.574 334.839,11.868 334.979,12.227 334.979 C 12.586 334.979,12.957 335.170,13.051 335.404 C 13.175 335.711,13.230 335.717,13.250 335.424 C 13.278 334.992,12.700 334.529,12.000 334.423 C 11.766 334.387,11.574 334.498,11.574 334.668 M325.793 334.550 C 325.516 334.659,325.059 334.978,324.778 335.258 C 324.334 335.702,324.333 335.740,324.772 335.544 C 325.050 335.421,325.545 335.225,325.872 335.109 C 326.321 334.951,326.818 334.187,326.383 334.325 C 326.336 334.340,326.071 334.441,325.793 334.550 M14.298 336.000 C 14.298 336.187,14.604 336.340,14.979 336.340 C 15.353 336.340,15.660 336.519,15.660 336.738 C 15.660 336.956,15.774 337.020,15.914 336.880 C 16.054 336.740,15.872 336.408,15.509 336.142 C 14.734 335.576,14.298 335.524,14.298 336.000 M369.702 336.117 C 370.170 336.363,370.783 336.482,371.064 336.383 C 371.425 336.254,371.326 336.132,370.723 335.965 C 369.303 335.569,368.801 335.643,369.702 336.117 M320.255 336.916 C 319.928 337.001,319.660 337.213,319.660 337.387 C 319.660 337.868,320.328 337.763,320.900 337.191 C 321.417 336.674,321.327 336.635,320.255 336.916 M168.851 338.043 L 21.617 338.214 169.126 338.298 C 267.401 338.355,316.566 338.269,316.426 338.043 C 316.310 337.855,316.186 337.740,316.150 337.787 C 316.114 337.833,249.830 337.948,168.851 338.043 " stroke="none" fill="#2c6cb4" fill-rule="evenodd"></path><path id="path2" d="" stroke="none" fill="#3064b4" fill-rule="evenodd"></path><path id="path3" d="" stroke="none" fill="#3064b4" fill-rule="evenodd"></path><path id="path4" d="" stroke="none" fill="#3064b4" fill-rule="evenodd"></path></g></svg>